<mxfile host="app.diagrams.net" modified="2024-05-28T15:35:52.169Z" agent="Mozilla/5.0 (Windows NT 10.0; Win64; x64) AppleWebKit/537.36 (KHTML, like Gecko) Chrome/125.0.0.0 Safari/537.36 Edg/125.0.0.0" version="24.4.9" etag="ORRnmZEXIQG8bjqi0wO1" type="github">
  <diagram name="Страница — 1" id="bYmBLfIRT5D5ypJYP9VZ">
    <mxGraphModel>
      <root>
        <mxCell id="0" />
        <mxCell id="1" parent="0" />
      </root>
    </mxGraphModel>
  </diagram>
</mxfile>
